<?xml version="1.0" encoding="UTF-8" standalone="no"?>
<svg
   id="svg2"
   height="715.13pt"
   width="171.66pt"
   version="1.1"
   viewBox="0 0 171.66191 715.1283"
   sodipodi:docname="AbstractFlower29.svg"
   inkscape:version="1.1.1 (3bf5ae0d25, 2021-09-20)"
   inkscape:export-filename="/home/fernando/Proyectos/LIBROS/FORMULATION/TEMPLATE-BOOK-SCIENTIFIC1/template-book-scientific1/pictures/icons/public/others/AbstractFlower29.png"
   inkscape:export-xdpi="384"
   inkscape:export-ydpi="384"
   xmlns:inkscape="http://www.inkscape.org/namespaces/inkscape"
   xmlns:sodipodi="http://sodipodi.sourceforge.net/DTD/sodipodi-0.dtd"
   xmlns="http://www.w3.org/2000/svg"
   xmlns:svg="http://www.w3.org/2000/svg">
  <defs
     id="defs6" />
  <sodipodi:namedview
     id="namedview4"
     pagecolor="#ffffff"
     bordercolor="#666666"
     borderopacity="1.0"
     inkscape:pageshadow="2"
     inkscape:pageopacity="0.0"
     inkscape:pagecheckerboard="0"
     inkscape:document-units="pt"
     showgrid="false"
     inkscape:zoom="0.7540587"
     inkscape:cx="114.04948"
     inkscape:cy="476.75334"
     inkscape:window-width="1848"
     inkscape:window-height="1016"
     inkscape:window-x="72"
     inkscape:window-y="27"
     inkscape:window-maximized="1"
     inkscape:current-layer="svg2" />
  <path
     id="path4"
     d="m99.403 0.00015211c-1.717 0.00704-3.429 0.25688-5.082 0.77813-22.98 8.39-27.759 39.88-14.839 58.66 7.91 11.56 17.82 21.491 26.95 32.041 19.83 22.51 7.167 71.154-9.9609 79.28-1.3182 2.0341 0.41094 2.8197 2.1109 2.4797 27.99-1.79 46.866-35.672 39.309-61.241-6.37-23.55-29.12-35.559-45.73-51.189-11.88-10.65-14.389-28.547-7.4203-42.991 3.8418-8.5522 15.831-14.129 23.391-6.5891 3.6 7.36-6.3406 4.4091-7.3906 9.3891 0.7 7.98 12.479 13.34 16.759 4.7703 6.16-13.608-6.08-25.436-18.097-25.387zm-21.707 75.649c-0.8005 0.0064-1.6783 0.0833-2.6344 0.23906-16.65 4.49-29.83 18.53-34.23 35.08-5.66 29.39 17.479 56.5 44.869 63.25 3.21 1.26 6.1247-0.61406 3.2547-2.4641-21.23-20.29-33.545-62.655-8.4047-84.275 5.4153-5.3757 4.8836-11.892-2.8547-11.83zm9.2656 8.1094c-17.582 23.389-17.97 64.629 4.4 86.609 22.54-22.35 19.65-67.529-4.4-86.609zm18.111 93.003c-0.68741-0.0162-1.3753 0.011-2.0609 0.0859-10.08 7.49 10.389 26.021 19.909 20.741 2.5594-10.406-7.5373-20.584-17.848-20.827zm-23.239 0.63125c-1.4308-0.00078-2.7341 0.16531-3.5516 0.44531-8.58 2-14.101 10.07-15.681 18.33 9.63 8.09 20.841-4.8903 25.841-12.87 3.12-4.4025-2.3155-5.9024-6.6078-5.9047zm12.722 9.9438c-0.24919-0.0141-0.50694-0.0108-0.77344 0.011-4.6668-0.26428-3.1431 81.621-4.1812 122.95-4.85-13.37-6.7791-32.3-16.039-45.93-14.53-22.81-50-17.019-62.03-42.239-11.41-3.86-13.24 13.75-10.27 21.4 10.93 28.79 48.389 24.42 66.359 45.8 33.28 37.76 16.441 93.197 20.961 138.37-9.2-24.99-31.643-51.184-36.981-70.23-4.3448-8.6993 0.09322-31.096-12.969-27.93-11.33 7.84-11.45 24.469-7.9703 36.659 4.1 19.4 26.18 30.078 37.48 40.611 12.154 10.96 16.441 22.42 21.891 35.18-0.77 30.15 3.5891 60.451 0.48906 90.491-1.8678-3.9031-2.8431-6.5899-4.2391-10.831-4.31-24.92-22.12-44.269-42.4-57.869-9.09-2.07-3.9909 10.219-3.8609 14.989 3.29 19.33 20.391 31.27 34.961 42.18 16.892 14.764 14.387 29.201 14.719 47.82-0.84 39.18-2.1991 78.001-1.7391 117.19-0.26264 3.6053 0.59642 11.406 1.0703 17.145 0.2798 3.3885 4.1334 3.9193 7.1188-0.0453-0.19-50.88-0.27-101.73 0.6-152.72 0.70512-9.9004 4.7506-15.391 9.4906-22.091 15.1-20.32 45.57-48.257 35.741-66.119-5.977-4.7543-4.0803 2.4644-10.38 7.2625-15.03 13.08-29.841 28.467-33.281 48.897-2.0641-25.879-0.43-51.08-1.9-75.9-0.64-24.02 11.37-54.5 38.68-57.3 19.4-3.49 32.881-8.4052 36.561-39.8-0.55036-20.844-32.761-14.64-29.061-32.68 7.45-0.11 23.59-7.7506 16.7-16.991-6.3274-7.4904-31.42 12.35-21.6 24.58 6.86 12.66 32.661 12.65 25.961 32.1-2.9596 6.0513-13.524 8.2026-23.68 10.681-20.46 2.72-34.61 19.689-42.82 37.389-1.9669-3.535-1.3616-11.796-1.6703-17.72 2.0542-33.177-7.4194-69.869 16.691-96.539 17.07-12.71 29.63-32.22 29.98-53.92-0.0623-5.4041 0.49555-15.142-4.9297-5.0906-4.39 17.41-25.301 23.49-30.361 40.67-4.87 7.68-5.5 17.021-9.5 24.961-5.306-33.3 12.879-104.49-2.815-105.37zm-85.321 521.43c-3.72-0.22-4.71 3.4694-3.3 6.3594 53.59-0.01 107.38-1.1091 161.01 0.011 2.94-5.64-5.1-5.3909-8.65-5.6609-49.76-0.5-99.289-0.12937-149.06-0.70937z"
     style="fill:#b7916e;fill-opacity:1" />
</svg>
