<?xml version="1.0" encoding="UTF-8" standalone="no"?>
<!-- Created with Inkscape (http://www.inkscape.org/) -->
<svg xmlns:inkscape="http://www.inkscape.org/namespaces/inkscape" xmlns:rdf="http://www.w3.org/1999/02/22-rdf-syntax-ns#" xmlns="http://www.w3.org/2000/svg" xmlns:sodipodi="http://sodipodi.sourceforge.net/DTD/sodipodi-0.dtd" xmlns:cc="http://creativecommons.org/ns#" xmlns:xlink="http://www.w3.org/1999/xlink" xmlns:dc="http://purl.org/dc/elements/1.1/" xmlns:svg="http://www.w3.org/2000/svg" xmlns:ns1="http://sozi.baierouge.fr" id="svg2254" sodipodi:docname="kuba_information_icons_set_ok.svg" inkscape:export-filename="C:\joanna\Gfx\drawings_vector\admin\collections\kuba_information_icons_set.png" viewBox="0 0 313.6 63.178" sodipodi:version="0.32" inkscape:export-xdpi="182.23772" version="1.0" inkscape:output_extension="org.inkscape.output.svg.inkscape" inkscape:export-ydpi="182.23772" inkscape:version="0.45.1+0.46pre1+devel" sodipodi:docbase="/home/kuba">
  <defs id="defs3">
    <linearGradient id="linearGradient4693" y2="387.44" gradientUnits="userSpaceOnUse" y1="369.98" x2="332.02" x1="314.57" inkscape:collect="always">
      <stop id="stop4570" style="stop-color:#e12b1c" offset="0"/>
      <stop id="stop4572" style="stop-color:#980b00" offset="1"/>
    </linearGradient>
    <linearGradient id="linearGradient3709" y2="387.44" xlink:href="#linearGradient4886" gradientUnits="userSpaceOnUse" x2="332.02" y1="369.98" x1="314.57" inkscape:collect="always"/>
    <linearGradient id="linearGradient4886">
      <stop id="stop4888" style="stop-color:#1c97e1" offset="0"/>
      <stop id="stop4890" style="stop-color:#006798" offset="1"/>
    </linearGradient>
    <linearGradient id="linearGradient4738">
      <stop id="stop4740" style="stop-color:#ffffff;stop-opacity:.72656" offset="0"/>
      <stop id="stop4742" style="stop-color:#ffffff" offset="1"/>
    </linearGradient>
    <linearGradient id="linearGradient4554">
      <stop id="stop4556" style="stop-color:#ffffff" offset="0"/>
      <stop id="stop4558" style="stop-color:#ffffff;stop-opacity:0" offset="1"/>
    </linearGradient>
    <linearGradient id="linearGradient2322" y2="338.76" xlink:href="#linearGradient4738" gradientUnits="userSpaceOnUse" x2="818.39" gradientTransform="matrix(.64585 0 0 .87583 -151.44 -50.61)" y1="302.44" x1="786.65" inkscape:collect="always"/>
    <linearGradient id="linearGradient2325" y2="359.15" xlink:href="#linearGradient4554" gradientUnits="userSpaceOnUse" x2="745.22" gradientTransform="matrix(.90172 0 0 1.109 -312.58 -154.34)" y1="328.41" x1="714" inkscape:collect="always"/>
    <linearGradient id="linearGradient2328" y2="424.73" gradientUnits="userSpaceOnUse" x2="649.38" gradientTransform="matrix(1.0614 0 0 .94212 -312.58 -154.34)" y1="387.4" x1="621.35" inkscape:collect="always">
      <stop id="stop5030" style="stop-color:#fffd26" offset="0"/>
      <stop id="stop5032" style="stop-color:#967f00" offset="1"/>
    </linearGradient>
    <linearGradient id="linearGradient2332" y2="400.04" xlink:href="#linearGradient4554" gradientUnits="userSpaceOnUse" x2="832.68" gradientTransform="translate(-399.01 -162.24)" y1="362.58" x1="808.13" inkscape:collect="always"/>
    <linearGradient id="linearGradient2336" y2="258.77" xlink:href="#linearGradient4738" gradientUnits="userSpaceOnUse" x2="1333" gradientTransform="matrix(.63860 0 0 1.5659 -399.07 -160.9)" y1="237.96" x1="1313.4" inkscape:collect="always"/>
    <linearGradient id="linearGradient2339" y2="-321.47" xlink:href="#linearGradient4886" gradientUnits="userSpaceOnUse" x2="909.22" gradientTransform="translate(-396.87 167.42)" y1="-320.5" x1="838.01" inkscape:collect="always"/>
    <linearGradient id="linearGradient2344" y2="338.76" xlink:href="#linearGradient4738" gradientUnits="userSpaceOnUse" x2="818.39" gradientTransform="matrix(.70552 0 0 .95675 -290.58 -78.44)" y1="302.44" x1="786.65" inkscape:collect="always"/>
    <linearGradient id="linearGradient2347" y2="390.78" xlink:href="#linearGradient4554" gradientUnits="userSpaceOnUse" x2="311.27" gradientTransform="matrix(1.9519 0 0 1.8418 -341.04 -488.52)" y1="377.95" x1="302.74" inkscape:collect="always"/>
    <linearGradient id="linearGradient2352" y2="390.78" xlink:href="#linearGradient4554" gradientUnits="userSpaceOnUse" x2="311.27" gradientTransform="matrix(1.9519 0 0 1.8418 -426.22 -488.52)" y1="377.95" x1="302.74" inkscape:collect="always"/>
    <linearGradient id="linearGradient2355" y2="390.49" xlink:href="#linearGradient4738" gradientUnits="userSpaceOnUse" x2="414.39" gradientTransform="matrix(.99995 0 0 1.0001 -219.82 -158.75)" y1="376.14" x1="401.93" inkscape:collect="always"/>
  </defs>
  <sodipodi:namedview id="base" bordercolor="#666666" inkscape:pageshadow="2" inkscape:window-y="-4" pagecolor="#ffffff" inkscape:window-height="744" inkscape:zoom="1.1084842" inkscape:window-x="-4" showgrid="false" borderopacity="1.0" inkscape:current-layer="layer1" inkscape:cx="305.2695" inkscape:cy="240.73049" inkscape:window-width="1280" inkscape:pageopacity="0.0" inkscape:document-units="px"/>
  <g id="layer1" inkscape:label="Layer 1" inkscape:groupmode="layer" transform="translate(-164.6 -196.71)">
    <path id="path4531" sodipodi:rx="13.966679" sodipodi:ry="13.966679" style="fill:#b4281c" sodipodi:type="arc" d="m339.54 378.06a13.967 13.967 0 1 1 -27.94 0 13.967 13.967 0 1 1 27.94 0z" transform="matrix(1.8961 0 0 1.8961 -426.22 -488.52)" sodipodi:cy="378.05789" sodipodi:cx="325.57108"/>
    <path id="path4533" sodipodi:rx="13.966679" sodipodi:ry="13.966679" style="stroke:#ffffff;stroke-width:.32492;fill:url(#linearGradient4693)" sodipodi:type="arc" d="m339.54 378.06a13.967 13.967 0 1 1 -27.94 0 13.967 13.967 0 1 1 27.94 0z" transform="matrix(1.7312 0 0 1.7312 -372.54 -426.19)" sodipodi:cy="378.05789" sodipodi:cx="325.57108"/>
    <path id="rect4574" style="fill:url(#linearGradient2355)" d="m177.62 219.89c-0.22 0.22-0.18 0.57 0.04 0.79l7.59 7.58-7.63 7.63c-0.22 0.22-0.22 0.62 0 0.84l5.03 5.03c0.22 0.22 0.57 0.18 0.79-0.05l7.63-7.62 7.62 7.62c0.23 0.23 0.58 0.27 0.8 0.05l5.03-5.03c0.22-0.22 0.22-0.62 0-0.84l-7.63-7.63 7.63-7.62c0.22-0.22 0.22-0.53 0-0.75l-5.03-5.03c-0.22-0.23-0.57-0.27-0.8-0.04l-7.62 7.62-7.58-7.58c-0.23-0.23-0.62-0.23-0.84 0l-5.03 5.03z"/>
    <path id="path4537" style="fill:url(#linearGradient2352)" d="m191.07 204.13c-13.35 0-24.18 10.83-24.18 24.18 0 6.41 2.62 12.14 6.7 16.47 2.12-17.5 16.89-31.11 34.96-31.11 0.49 0 0.94 0.1 1.42 0.12-4.42-5.75-11.09-9.66-18.9-9.66z"/>
    <path id="path4850" sodipodi:rx="13.966679" sodipodi:ry="13.966679" style="fill:#166496" sodipodi:type="arc" d="m339.54 378.06a13.967 13.967 0 1 1 -27.94 0 13.967 13.967 0 1 1 27.94 0z" transform="matrix(1.8961 0 0 1.8961 -341.04 -488.52)" sodipodi:cy="378.05789" sodipodi:cx="325.57108"/>
    <path id="path4852" sodipodi:rx="13.966679" sodipodi:ry="13.966679" style="stroke:#ffffff;stroke-width:.68595;fill:url(#linearGradient3709)" sodipodi:type="arc" d="m339.54 378.06a13.967 13.967 0 1 1 -27.94 0 13.967 13.967 0 1 1 27.94 0z" transform="matrix(1.7312 0 0 1.7312 -287.36 -426.19)" sodipodi:cy="378.05789" sodipodi:cx="325.57108"/>
    <path id="path4854" style="fill:url(#linearGradient2347)" d="m276.25 204.13c-13.35 0-24.18 10.83-24.18 24.18 0 6.41 2.62 12.14 6.7 16.47 2.12-17.5 16.89-31.11 34.96-31.11 0.48 0 0.93 0.1 1.42 0.12-4.42-5.75-11.09-9.66-18.9-9.66z"/>
    <path id="text4864" style="fill:url(#linearGradient2344)" d="m274.29 240.84c-1.89 0-3.38 1.48-3.38 3.28 0 1.84 1.49 3.32 3.33 3.32 1.79 0 3.28-1.48 3.28-3.32 0-1.8-1.49-3.28-3.23-3.28m1.13-2.97c-0.05-4.61 1.02-6.35 4.5-7.68l1.69-0.61c2.36-0.82 3.89-1.85 4.97-3.13 1.23-1.63 1.94-3.68 1.94-5.68 0-3.02-1.53-5.83-4.04-7.32-2.31-1.38-5.33-2.2-8.24-2.2-3.38 0-7.07 1.07-9.12 2.66-2.2 1.74-3.53 3.99-3.53 6.04 0 2.15 1.33 3.74 3.18 3.74 1.48 0 2.76-1.18 2.76-2.46 0-0.51-0.1-0.82-0.61-1.89-0.36-0.67-0.47-1.08-0.47-1.64 0-2.46 3.23-4.4 7.27-4.4 4.66 0 7.27 2.56 7.27 7.01 0 2.82-1.22 5.12-3.53 6.71l-2.92 1.99c-2.76 1.85-3.53 3.33-3.53 6.61 0 0.66 0.05 1.23 0.1 2.25h2.31"/>
    <rect id="rect5057" ry="6" style="fill:#166496" rx="6" transform="rotate(45)" height="48.18" width="48.18" y="-178.46" x="453.15"/>
    <rect id="rect5059" ry="3" style="stroke:#ffffff;stroke-width:1.1875;fill:url(#linearGradient2339)" rx="3" transform="rotate(45)" height="42.857" width="42.857" y="-175.8" x="455.81"/>
    <path id="text5067" style="fill:url(#linearGradient2336)" d="m449.73 220.52h-1.62c-2.9 0.53-4.47 0.77-6.99 0.96v1.42l0.96 0.1c2.47 0.23 3.13 1.09 3.13 3.94v11.17c0 2.62-0.85 3.71-2.94 3.95l-1.19 0.1v1.42h12.74v-1.42l-1.14-0.1c-2.14-0.24-2.95-1.33-2.95-3.95v-17.59m-2.19-8.03c-1.61 0-2.9 1.28-2.9 2.85 0 1.62 1.29 2.9 2.86 2.9 1.61 0 2.9-1.28 2.9-2.85s-1.29-2.9-2.86-2.9"/>
    <path id="rect5098" style="fill:url(#linearGradient2332)" d="m446.61 199.23c-0.76 0-1.53 0.29-2.12 0.87l-26.07 26.07c-1.17 1.17-1.17 3.07 0 4.25l16.66 16.65c0.04-17.36 11.74-31.56 26.81-33.81l-13.15-13.16c-0.59-0.58-1.36-0.87-2.13-0.87z"/>
    <path id="path5333" sodipodi:nodetypes="czzzzsz" style="fill:#a6a700" d="m356.37 207.63l-20.94 36.31c-2.75 4.77-0.02 8.69 5.13 8.69h41.9c5.11 0 7.54-4.58 5.16-8.69l-20.97-36.31c-2.8-4.86-7.46-4.9-10.28 0z"/>
    <path id="path5335" sodipodi:nodetypes="czzzzsz" style="stroke:#ffffff;stroke-width:.68595;fill:url(#linearGradient2328)" d="m356.73 209.8l-19.13 33.18c-3.07 5.33-1.33 7.94 4.69 7.94h38.29c5.71 0 7.91-2.4 4.71-7.94l-19.16-33.18c-2.88-4.98-6.48-5.05-9.4 0z"/>
    <path id="path5337" style="fill:url(#linearGradient2325)" d="m361.45 206.03c-1.62 0-3.26 1.26-4.72 3.79l-19.12 33.15c-3.08 5.33-1.33 7.94 4.69 7.94h2.96c0-0.12-0.03-0.23-0.03-0.34 0-15.31 11.99-27.8 27.38-29.57l-6.47-11.18c-1.44-2.5-3.06-3.78-4.69-3.79z"/>
    <path id="text5339" style="fill:url(#linearGradient2322)" d="m361.34 241.67c-1.69 0-3.05 1.35-3.05 3 0 1.68 1.36 3.04 3.05 3.04 1.64 0 3-1.36 3-3.04 0-1.65-1.36-3-3-3m0.75-2.72v-1.46c0-1.78 0.38-5.24 0.8-7.45l1.31-6.37c0.42-2.16 0.66-3.8 0.66-4.78 0-2.72-1.27-4.31-3.38-4.31-2.25 0-3.37 1.54-3.37 4.73 0 1.03 0 1.03 0.56 4.22l1.03 6.14c0.38 2.01 0.7 6 0.7 7.78v1.5h1.69"/>
  </g>
  <metadata>
    <rdf:RDF>
      <cc:Work>
        <dc:format>image/svg+xml</dc:format>
        <dc:type rdf:resource="http://purl.org/dc/dcmitype/StillImage"/>
        <cc:license rdf:resource="http://creativecommons.org/licenses/publicdomain/"/>
        <dc:publisher>
          <cc:Agent rdf:about="http://openclipart.org/">
            <dc:title>Openclipart</dc:title>
          </cc:Agent>
        </dc:publisher>
        <dc:title>information icons set</dc:title>
        <dc:date>2006-12-26T05:11:46</dc:date>
        <dc:description>Question, Exclamation, Information and Error Icons.</dc:description>
        <dc:source>https://openclipart.org/detail/2281/information-icons-set-by-kuba</dc:source>
        <dc:creator>
          <cc:Agent>
            <dc:title>kuba</dc:title>
          </cc:Agent>
        </dc:creator>
        <dc:subject>
          <rdf:Bag>
            <rdf:li>blue</rdf:li>
            <rdf:li>cancel</rdf:li>
            <rdf:li>collection</rdf:li>
            <rdf:li>error</rdf:li>
            <rdf:li>exclamation</rdf:li>
            <rdf:li>glossy</rdf:li>
            <rdf:li>icon</rdf:li>
            <rdf:li>information</rdf:li>
            <rdf:li>question</rdf:li>
            <rdf:li>red</rdf:li>
            <rdf:li>set</rdf:li>
            <rdf:li>warning</rdf:li>
            <rdf:li>yellow</rdf:li>
          </rdf:Bag>
        </dc:subject>
      </cc:Work>
      <cc:License rdf:about="http://creativecommons.org/licenses/publicdomain/">
        <cc:permits rdf:resource="http://creativecommons.org/ns#Reproduction"/>
        <cc:permits rdf:resource="http://creativecommons.org/ns#Distribution"/>
        <cc:permits rdf:resource="http://creativecommons.org/ns#DerivativeWorks"/>
      </cc:License>
    </rdf:RDF>
  </metadata>
</svg>