<?xml version="1.0" encoding="UTF-8"?>
<!-- Generator: Adobe Illustrator 16.0.0, SVG Export Plug-In . SVG Version: 6.00 Build 0)  -->
<!DOCTYPE svg PUBLIC "-//W3C//DTD SVG 1.1//EN" "http://www.w3.org/Graphics/SVG/1.1/DTD/svg11.dtd">
<svg version="1.1" id="taped_page" xmlns="http://www.w3.org/2000/svg" xmlns:xlink="http://www.w3.org/1999/xlink" x="0px" y="0px" width="733.664px" height="955px" viewBox="0 0 733.664 955" enable-background="new 0 0 733.664 955" xml:space="preserve">
<rect id="page" x="89.083" y="98.375" fill="#DDD299" stroke="#997D0A" stroke-width="2" width="545.254" height="772.25"/>
<g id="masking_tape">
	<polygon fill="#B7916E" points="12.336,64.125 90.836,188.625 101.336,190.125 106.083,184.875 113.583,186.875 119.083,180.125    126.336,176.625 129.583,167.625 132.583,158.875 130.583,143.625 127.336,124.125 53.336,8.875 47.083,21.125 38.083,29.625    33.336,30.625 30.836,39.875 16.583,48.625  "/>
	<polygon fill="#B7916E" points="635.836,15.125 543.083,131.375 547.583,133.375 553.336,136.125 553.583,150.125 562.583,151.875    564.836,162.125 574.836,164.875 582.836,162.125 586.083,173.375 588.336,176.625 691.083,48.375 688.083,33.375 680.083,29.375    680.336,23.625 677.336,20.375 669.083,23.875 667.336,21.625 656.083,21.875 650.836,14.375  "/>
	<polygon fill="#B7916E" points="565.583,835.125 681.336,945.125 687.336,944.125 690.083,944.625 694.083,944.125    697.336,940.375 700.083,931.125 705.583,923.625 709.336,917.125 717.836,914.375 724.583,910.125 728.336,905.875    725.836,899.875 594.836,775.125 583.083,789.875 575.583,793.875 576.336,818.625 563.836,813.375 561.336,815.875    566.336,828.125  "/>
	<polygon fill="#B7916E" points="105.336,783.125 12.336,899.125 14.836,908.625 21.836,910.625 22.836,918.125 32.083,919.875    34.083,930.375 44.083,933.125 46.083,938.625 55.083,941.375 57.583,944.625 176.083,796.875 161.336,796.125 149.583,791.625    146.336,788.125 136.336,789.875 122.336,780.875  "/>
</g>
</svg>