<?xml version="1.0" encoding="UTF-8" standalone="no"?>
<svg
   xmlns:dc="http://purl.org/dc/elements/1.1/"
   xmlns:cc="http://creativecommons.org/ns#"
   xmlns:rdf="http://www.w3.org/1999/02/22-rdf-syntax-ns#"
   xmlns:svg="http://www.w3.org/2000/svg"
   xmlns="http://www.w3.org/2000/svg"
   xmlns:sodipodi="http://sodipodi.sourceforge.net/DTD/sodipodi-0.dtd"
   xmlns:inkscape="http://www.inkscape.org/namespaces/inkscape"
   version="1.1"
   id="svg2"
   xml:space="preserve"
   width="712"
   height="597.33331"
   viewBox="0 0 712 597.33331"
   sodipodi:docname="attention2.svg"
   inkscape:version="1.0.1 (1.0.1+r73)"><metadata
     id="metadata8"><rdf:RDF><cc:Work
         rdf:about=""><dc:format>image/svg+xml</dc:format><dc:type
           rdf:resource="http://purl.org/dc/dcmitype/StillImage" /><dc:title></dc:title></cc:Work></rdf:RDF></metadata><defs
     id="defs6" /><sodipodi:namedview
     pagecolor="#ffffff"
     bordercolor="#666666"
     borderopacity="1"
     objecttolerance="10"
     gridtolerance="10"
     guidetolerance="10"
     inkscape:pageopacity="0"
     inkscape:pageshadow="2"
     inkscape:window-width="899"
     inkscape:window-height="480"
     id="namedview4"
     showgrid="false"
     inkscape:zoom="1.21875"
     inkscape:cx="134.46155"
     inkscape:cy="298.66666"
     inkscape:window-x="67"
     inkscape:window-y="27"
     inkscape:window-maximized="0"
     inkscape:current-layer="g10" /><g
     id="g10"
     inkscape:groupmode="layer"
     inkscape:label="ink_ext_XXXXXX"
     transform="matrix(1.3333333,0,0,-1.3333333,0,597.33333)"><g
       id="g12"
       transform="scale(0.1)"><path
         d="M 120.27,113.398 2671.41,4365.27 5222.54,113.398 Z"
         style="fill:#8e0000;fill-opacity:1;fill-rule:nonzero;stroke:none"
         id="path14" /><path
         d="M 120.27,113.398 2671.41,4365.27 5222.54,113.398 Z"
         style="fill:none;stroke:#8e0000;stroke-width:226.77;stroke-linecap:butt;stroke-linejoin:round;stroke-miterlimit:10;stroke-dasharray:none;stroke-opacity:1"
         id="path16" /><path
         d="m 2954.84,3231.45 c 0,-156.57 -126.87,-283.48 -283.43,-283.48 -156.57,0 -283.48,126.91 -283.48,283.48 0,156.56 126.91,283.47 283.48,283.47 156.56,0 283.43,-126.91 283.43,-283.47"
         style="fill:#ffffff;fill-opacity:1;fill-rule:nonzero;stroke:none"
         id="path18" /><path
         d="m 2954.84,3231.45 c 0,-156.57 -126.87,-283.48 -283.43,-283.48 -156.57,0 -283.48,126.91 -283.48,283.48 0,156.56 126.91,283.47 283.48,283.47 156.56,0 283.43,-126.91 283.43,-283.47 z"
         style="fill:none;stroke:#ffffff;stroke-width:113.384;stroke-linecap:butt;stroke-linejoin:round;stroke-miterlimit:10;stroke-dasharray:none;stroke-opacity:1"
         id="path20" /><path
         d="m 2387.93,3231.45 h 566.91 l -198.39,-1842.5 h -170.08"
         style="fill:#ffffff;fill-opacity:1;fill-rule:evenodd;stroke:none"
         id="path22" /><path
         d="m 2387.93,3231.45 h 566.91 l -198.39,-1842.5 h -170.08 z"
         style="fill:none;stroke:#ffffff;stroke-width:113.384;stroke-linecap:butt;stroke-linejoin:round;stroke-miterlimit:10;stroke-dasharray:none;stroke-opacity:1"
         id="path24" /><path
         d="m 2954.84,680.309 c 0,-156.559 -126.87,-283.469 -283.43,-283.469 -156.57,0 -283.48,126.91 -283.48,283.469 0,156.531 126.91,283.441 283.48,283.441 156.56,0 283.43,-126.91 283.43,-283.441"
         style="fill:#ffffff;fill-opacity:1;fill-rule:nonzero;stroke:none"
         id="path26" /><path
         d="m 2954.84,680.309 c 0,-156.559 -126.87,-283.469 -283.43,-283.469 -156.57,0 -283.48,126.91 -283.48,283.469 0,156.531 126.91,283.441 283.48,283.441 156.56,0 283.43,-126.91 283.43,-283.441 z"
         style="fill:none;stroke:#ffffff;stroke-width:113.384;stroke-linecap:butt;stroke-linejoin:round;stroke-miterlimit:10;stroke-dasharray:none;stroke-opacity:1"
         id="path28" /></g></g></svg>
