<?xml version="1.0" encoding="UTF-8" standalone="no"?>
<svg
   xmlns:dc="http://purl.org/dc/elements/1.1/"
   xmlns:cc="http://creativecommons.org/ns#"
   xmlns:rdf="http://www.w3.org/1999/02/22-rdf-syntax-ns#"
   xmlns:svg="http://www.w3.org/2000/svg"
   xmlns="http://www.w3.org/2000/svg"
   xmlns:sodipodi="http://sodipodi.sourceforge.net/DTD/sodipodi-0.dtd"
   xmlns:inkscape="http://www.inkscape.org/namespaces/inkscape"
   version="1.1"
   id="svg2"
   xml:space="preserve"
   width="734.66669"
   height="612"
   viewBox="0 0 734.66669 612"
   sodipodi:docname="attention1.svg"
   inkscape:version="1.0.1 (1.0.1+r73)"><metadata
     id="metadata8"><rdf:RDF><cc:Work
         rdf:about=""><dc:format>image/svg+xml</dc:format><dc:type
           rdf:resource="http://purl.org/dc/dcmitype/StillImage" /><dc:title></dc:title></cc:Work></rdf:RDF></metadata><defs
     id="defs6" /><sodipodi:namedview
     pagecolor="#ffffff"
     bordercolor="#666666"
     borderopacity="1"
     objecttolerance="10"
     gridtolerance="10"
     guidetolerance="10"
     inkscape:pageopacity="0"
     inkscape:pageshadow="2"
     inkscape:window-width="896"
     inkscape:window-height="480"
     id="namedview4"
     showgrid="false"
     inkscape:zoom="1.1895425"
     inkscape:cx="140.35532"
     inkscape:cy="306"
     inkscape:window-x="67"
     inkscape:window-y="27"
     inkscape:window-maximized="0"
     inkscape:current-layer="g10" /><g
     id="g10"
     inkscape:groupmode="layer"
     inkscape:label="ink_ext_XXXXXX"
     transform="matrix(1.3333333,0,0,-1.3333333,0,612)"><g
       id="g12"
       transform="scale(0.1)"><path
         d="M 200.258,113.383 2751.4,4365.29 5302.54,113.383"
         style="fill:#ffffff;fill-opacity:1;fill-rule:evenodd;stroke:none"
         id="path14" /><path
         d="M 200.258,113.383 2751.4,4365.29 5302.54,113.383 Z"
         style="fill:none;stroke:#ffffff;stroke-width:226.768;stroke-linecap:butt;stroke-linejoin:round;stroke-miterlimit:10;stroke-dasharray:none;stroke-opacity:1"
         id="path16" /><path
         d="m 3034.86,3231.45 c 0,-156.55 -126.91,-283.47 -283.46,-283.47 -156.55,0 -283.46,126.92 -283.46,283.47 0,156.54 126.91,283.46 283.46,283.46 156.55,0 283.46,-126.92 283.46,-283.46"
         style="fill:#622006;fill-opacity:1;fill-rule:nonzero;stroke:none"
         id="path18" /><path
         d="m 3034.86,3231.45 c 0,-156.55 -126.91,-283.47 -283.46,-283.47 -156.55,0 -283.46,126.92 -283.46,283.47 0,156.54 126.91,283.46 283.46,283.46 156.55,0 283.46,-126.92 283.46,-283.46 z"
         style="fill:none;stroke:#622006;stroke-width:113.384;stroke-linecap:butt;stroke-linejoin:round;stroke-miterlimit:10;stroke-dasharray:none;stroke-opacity:1"
         id="path20" /><path
         d="m 2467.94,3231.45 h 566.92 l -198.42,-1842.5 h -170.08"
         style="fill:#622006;fill-opacity:1;fill-rule:evenodd;stroke:none"
         id="path22" /><path
         d="m 2467.94,3231.45 h 566.92 l -198.42,-1842.5 h -170.08 z"
         style="fill:none;stroke:#622006;stroke-width:113.384;stroke-linecap:butt;stroke-linejoin:round;stroke-miterlimit:10;stroke-dasharray:none;stroke-opacity:1"
         id="path24" /><path
         d="m 3034.86,680.305 c 0,-156.547 -126.91,-283.461 -283.46,-283.461 -156.55,0 -283.46,126.914 -283.46,283.461 0,156.547 126.91,283.461 283.46,283.461 156.55,0 283.46,-126.914 283.46,-283.461"
         style="fill:#622006;fill-opacity:1;fill-rule:nonzero;stroke:none"
         id="path26" /><path
         d="m 3034.86,680.305 c 0,-156.547 -126.91,-283.461 -283.46,-283.461 -156.55,0 -283.46,126.914 -283.46,283.461 0,156.547 126.91,283.461 283.46,283.461 156.55,0 283.46,-126.914 283.46,-283.461 z"
         style="fill:none;stroke:#622006;stroke-width:113.384;stroke-linecap:butt;stroke-linejoin:round;stroke-miterlimit:10;stroke-dasharray:none;stroke-opacity:1"
         id="path28" /></g></g></svg>
