<?xml version="1.0" encoding="UTF-8" standalone="no"?>
<svg
   width="128"
   height="128"
   version="1.1"
   id="svg7"
   sodipodi:docname="attention.svg"
   inkscape:version="1.1.1 (3bf5ae0d25, 2021-09-20)"
   xmlns:inkscape="http://www.inkscape.org/namespaces/inkscape"
   xmlns:sodipodi="http://sodipodi.sourceforge.net/DTD/sodipodi-0.dtd"
   xmlns="http://www.w3.org/2000/svg"
   xmlns:svg="http://www.w3.org/2000/svg">
  <sodipodi:namedview
     id="namedview9"
     pagecolor="#ffffff"
     bordercolor="#666666"
     borderopacity="1.0"
     inkscape:pageshadow="2"
     inkscape:pageopacity="0.0"
     inkscape:pagecheckerboard="0"
     showgrid="false"
     inkscape:zoom="2.0426136"
     inkscape:cx="6.853964"
     inkscape:cy="41.368568"
     inkscape:window-width="1848"
     inkscape:window-height="1016"
     inkscape:window-x="72"
     inkscape:window-y="27"
     inkscape:window-maximized="1"
     inkscape:current-layer="svg7"
     width="19.99925px" />
  <defs
     id="defs3">
    <style
       id="current-color-scheme"
       type="text/css">
   .ColorScheme-Text { color:#565656; } .ColorScheme-Highlight { color:#4285f4; }
  </style>
  </defs>
  <path
     id="path5-6"
     style="color:#565656;fill:#393939;fill-opacity:1;stroke-width:5.81838"
     class="ColorScheme-Text"
     d="M 60.156258,4.7679566 C 56.71077,5.5170423 53.625214,6.8563348 51.569243,9.8426338 46.704338,15.71609 43.779107,23.048105 39.683586,29.500702 26.993774,51.905863 14.002007,74.171487 1.4832979,96.653135 c -2.01014767,4.031245 -1.72947719,8.571635 -0.61964811,12.771095 1.77173721,3.62953 3.89290071,6.95496 7.57922351,8.87208 6.1439827,3.80107 13.9202167,1.88757 20.8168787,2.36194 27.867829,-0.0999 55.759099,0.19923 83.612378,-0.14842 10.94069,-0.76541 18.40927,-13.74831 13.68282,-23.614674 C 110.70709,68.424848 94.297473,40.234826 78.213686,11.881834 74.964802,6.9500622 69.359608,4.2057585 63.51774,4.0895948 62.349735,3.7325089 61.276512,4.5430485 60.156258,4.7679566 Z" />
  <path
     style="fill:#fbb03b;fill-opacity:1;stroke-width:5.81838"
     class="ColorScheme-Text"
     d="m 63.686479,15.864893 a 5.3939515,5.4563709 0 0 0 -4.386511,2.727365 L 35.833262,59.718656 12.355191,100.83369 a 5.3939515,5.4563709 0 0 0 4.681977,8.19346 h 46.933411 46.944771 a 5.3939515,5.4563709 0 0 0 4.65925,-8.19346 L 92.119263,59.718656 68.641195,18.592258 a 5.3939515,5.4563709 0 0 0 -4.954716,-2.727365 z m -5.545644,23.30761 h 11.63676 V 74.08278 h -11.63676 z m 0,46.547036 h 11.63676 v 11.636758 h -11.63676 z"
     id="path5" />
</svg>
