<?xml version="1.0" encoding="UTF-8" standalone="no"?>
<svg
   xmlns:dc="http://purl.org/dc/elements/1.1/"
   xmlns:cc="http://creativecommons.org/ns#"
   xmlns:rdf="http://www.w3.org/1999/02/22-rdf-syntax-ns#"
   xmlns:svg="http://www.w3.org/2000/svg"
   xmlns="http://www.w3.org/2000/svg"
   xmlns:sodipodi="http://sodipodi.sourceforge.net/DTD/sodipodi-0.dtd"
   xmlns:inkscape="http://www.inkscape.org/namespaces/inkscape"
   version="1.1"
   id="svg2"
   xml:space="preserve"
   width="305.33334"
   height="305.33334"
   viewBox="0 0 305.33334 305.33334"
   sodipodi:docname="information1.svg"
   inkscape:version="1.0.1 (1.0.1+r73)"><metadata
     id="metadata8"><rdf:RDF><cc:Work
         rdf:about=""><dc:format>image/svg+xml</dc:format><dc:type
           rdf:resource="http://purl.org/dc/dcmitype/StillImage" /><dc:title></dc:title></cc:Work></rdf:RDF></metadata><defs
     id="defs6" /><sodipodi:namedview
     pagecolor="#ffffff"
     bordercolor="#666666"
     borderopacity="1"
     objecttolerance="10"
     gridtolerance="10"
     guidetolerance="10"
     inkscape:pageopacity="0"
     inkscape:pageshadow="2"
     inkscape:window-width="896"
     inkscape:window-height="480"
     id="namedview4"
     showgrid="false"
     inkscape:zoom="2.3842794"
     inkscape:cx="39.42491"
     inkscape:cy="152.66667"
     inkscape:window-x="67"
     inkscape:window-y="27"
     inkscape:window-maximized="0"
     inkscape:current-layer="g10" /><g
     id="g10"
     inkscape:groupmode="layer"
     inkscape:label="ink_ext_XXXXXX"
     transform="matrix(1.3333333,0,0,-1.3333333,0,305.33333)"><g
       id="g12"
       transform="scale(0.1)"><path
         d="M 2274.69,1147.81 C 2274.69,524.77 1768.63,19.6914 1144.41,19.6914 520.16,19.6914 14.1406,524.77 14.1406,1147.81 c 0,623.01 506.0194,1128.09 1130.2694,1128.09 624.22,0 1130.28,-505.08 1130.28,-1128.09"
         style="fill:#ffffff;fill-opacity:1;fill-rule:nonzero;stroke:none"
         id="path14" /><g
         id="g16"
         transform="scale(1.00096,0.999037)"><path
           d="M 2272.5,1148.92 C 2272.5,525.268 1766.93,19.7065 1143.31,19.7065 519.66,19.7065 14.127,525.268 14.127,1148.92 c 0,623.61 505.533,1129.17 1129.183,1129.17 623.62,0 1129.19,-505.56 1129.19,-1129.17 z"
           style="fill:none;stroke:#ffffff;stroke-width:28.2297;stroke-linecap:butt;stroke-linejoin:miter;stroke-miterlimit:10;stroke-dasharray:none;stroke-opacity:1"
           id="path18" /></g><path
         d="m 1307.3,751.762 48.6,-30.981 C 1279.34,603.629 1215.27,523.91 1163.75,481.602 1112.23,439.34 1053.36,418.199 987.109,418.199 c -44.179,0 -80.629,13.403 -109.339,40.242 -28.711,26.829 -43.04,60.387 -43.04,100.661 0,29.136 10.309,79.449 30.891,150.859 l 128.09,473.319 c 11.799,39.45 17.699,69.81 17.699,91.06 0,44.06 -44.18,66.09 -132.5,66.09 v 56.02 c 144.25,8.67 292.97,28.12 446.05,58.39 L 1124.02,718.828 c -13.28,-48.008 -19.88,-85.117 -19.88,-111.289 0,-20.391 11.02,-30.59 33.09,-30.59 36.83,0 83.94,44.262 141.36,132.781 l 28.71,42.032 m -48.59,1200.388 c 41.21,0 77.66,-15.43 109.3,-46.21 31.68,-30.74 47.5,-65.94 47.5,-105.51 0,-41.02 -15.47,-76.21 -46.37,-105.51 -30.9,-29.33 -67.73,-43.98 -110.43,-43.98 -39.76,0 -73.98,15.04 -102.69,45.08 -28.68,30.03 -43.05,67.07 -43.05,111.01 0,36.64 15.08,69.96 45.27,100 30.16,30.08 63.67,45.12 100.47,45.12"
         style="fill:#006000;fill-opacity:1;fill-rule:nonzero;stroke:none"
         id="path20" /></g></g></svg>
