<?xml version="1.0" encoding="UTF-8" standalone="no"?>
<!-- Created using Karbon, part of Calligra: http://www.calligra.org/karbon -->

<svg
   width="84.292648pt"
   height="96.011368pt"
   version="1.1"
   id="svg17"
   sodipodi:docname="note2.svg"
   inkscape:version="1.1.1 (3bf5ae0d25, 2021-09-20)"
   xmlns:inkscape="http://www.inkscape.org/namespaces/inkscape"
   xmlns:sodipodi="http://sodipodi.sourceforge.net/DTD/sodipodi-0.dtd"
   xmlns="http://www.w3.org/2000/svg"
   xmlns:svg="http://www.w3.org/2000/svg">
  <sodipodi:namedview
     id="namedview19"
     pagecolor="#ffffff"
     bordercolor="#666666"
     borderopacity="1.0"
     inkscape:pageshadow="2"
     inkscape:pageopacity="0.0"
     inkscape:pagecheckerboard="0"
     inkscape:document-units="pt"
     showgrid="false"
     inkscape:zoom="5.2661132"
     inkscape:cx="60.006306"
     inkscape:cy="68.266668"
     inkscape:window-width="1848"
     inkscape:window-height="1016"
     inkscape:window-x="72"
     inkscape:window-y="27"
     inkscape:window-maximized="1"
     inkscape:current-layer="g845" />
  <defs
     id="defs2" />
  <g
     id="g948"
     transform="translate(0,0.01516004)">
    <g
       id="g845"
       transform="translate(-3.90244,-3.9142)"
       fill="none">
      <path
         id="rect2"
         transform="matrix(6.2439,0,0,6.2439,3.90244,19.524)"
         fill="#000000"
         opacity="0.2"
         d="m 1.5,0 h 15 C 17.331,0 18,0.669 18,1.5 v 15 C 18,17.331 17.331,18 16.5,18 H 1.5 C 0.669,18 0,17.331 0,16.5 V 1.5 C 0,0.669 0.669,0 1.5,0 Z" />
      <path
         id="rect4"
         transform="matrix(6.2439,0,0,6.2439,3.90244,16.402)"
         fill="#795548"
         d="m 1.5,0 h 15 C 17.331,0 18,0.669 18,1.5 v 15 C 18,17.331 17.331,18 16.5,18 H 1.5 C 0.669,18 0,17.331 0,16.5 V 1.5 C 0,0.669 0.669,0 1.5,0 Z" />
      <path
         id="path8"
         transform="matrix(6.2439,0,0,6.2439,16.3905,32.0123)"
         fill="#000000"
         opacity="0.2"
         d="m 0,0 c 4.66664,0 9.33328,0 13.9999,0 0,4.66664 0,9.33328 0,13.9999 -4.66662,0 -9.33326,0 -13.9999,0 C 0,9.33328 0,4.66664 0,0 Z" />
      <path
         id="path10"
         transform="matrix(6.2439,0,0,6.2439,16.3905,28.8904)"
         fill="#ffffff"
         d="m 0,0 c 4.66664,0 9.33328,0 13.9999,0 0,4.66664 0,9.33328 0,13.9999 -4.66662,0 -9.33326,0 -13.9999,0 C 0,9.33328 0,4.66664 0,0 Z" />
      <path
         id="path12"
         transform="matrix(6.2439,0,0,6.2439,28.8782,7.02098)"
         fill="#000000"
         opacity="0.1"
         d="M 4.90525,0.00254831 C 3.76636,0.0197173 3.01522,0.967912 2.13312,1.55243 1.42208,2.09146 0.711041,2.63049 0,3.16952 c 0,0.94433 0,1.88866 0,2.83299 3.33331,0 6.66663,0 9.99994,0 0,-0.94433 0,-1.88866 0,-2.83299 C 8.69649,2.20562 7.43723,1.17526 6.10237,0.25866 5.7364,0.0620042 5.31844,-0.0155481 4.90525,0.00254831 Z M 4.99998,2.00254 c 1.73191,0.01238 0.89649,2.70614 -0.5,1.86601 -0.88213,-0.4626 -0.49525,-1.90646 0.5,-1.86601 z" />
      <path
         id="path14"
         transform="matrix(6.2439,0,0,6.2439,28.8782,3.89904)"
         fill="#b5b5b5"
         d="M 4.90525,0.00254831 C 3.76636,0.0197173 3.01522,0.967912 2.13312,1.55243 1.42208,2.09146 0.711041,2.63049 0,3.16952 c 0,0.94433 0,1.88866 0,2.83299 3.33331,0 6.66663,0 9.99994,0 0,-0.94433 0,-1.88866 0,-2.83299 C 8.69649,2.20562 7.43723,1.17526 6.10237,0.25866 5.7364,0.0620042 5.31844,-0.0155481 4.90525,0.00254831 Z M 4.99998,2.00254 c 1.63902,-0.02446 0.96501,2.7175 -0.5,1.86601 -0.88213,-0.4626 -0.49525,-1.90646 0.5,-1.86601 z" />
      <path
         id="rect16"
         transform="matrix(6.2439,0,0,6.2439,41.3659,53.8654)"
         fill="#b5b5b5"
         d="M 0,0 H 6 V 0.999999 H 0 Z" />
      <path
         id="rect18"
         transform="matrix(6.2439,0,0,6.2439,41.3659,66.3532)"
         fill="#b5b5b5"
         d="M 0,0 H 6 V 1 H 0 Z" />
      <path
         id="rect20"
         transform="matrix(6.2439,0,0,6.2439,41.3659,78.841)"
         fill="#b5b5b5"
         d="M 0,0 H 6 V 1 H 0 Z" />
      <path
         id="rect22"
         transform="matrix(6.2439,0,0,6.2439,41.3659,91.3288)"
         fill="#b5b5b5"
         d="M 0,0 H 4 V 1 H 0 Z" />
      <path
         id="path24"
         transform="matrix(6.2439,0,0,6.2439,28.7421,3.89904)"
         fill="#ffffff"
         opacity="0.2"
         d="M 4.92704,0.00254831 C 3.78816,0.0197173 3.03702,0.967912 2.15492,1.55243 1.44388,2.09146 0.732837,2.63049 0.0217964,3.16952 -0.0546336,3.65373 0.0685664,3.73609 0.413117,3.37286 1.57433,2.51265 2.69872,1.59756 3.88598,0.776267 4.87032,0.22296 6.1076,0.537377 6.88858,1.2943 7.93296,2.08604 8.97735,2.87778 10.0217,3.66952 10.0982,3.3012 9.97497,3.03205 9.63042,2.87287 8.4577,2.0074 7.32816,1.07703 6.12417,0.25866 5.7582,0.0620042 5.34024,-0.0155481 4.92704,0.00254831 Z M 4.05498,3.25253 c -0.41906,1.66708 2.3716,1.53121 1.93358,0 -0.20671,0.9823 -1.72687,0.98228 -1.93358,0 z" />
    </g>
  </g>
</svg>
