<?xml version="1.0" encoding="UTF-8" standalone="no"?>
<!-- Created with Inkscape (http://www.inkscape.org/) -->

<svg
   version="1.1"
   id="svg2"
   xml:space="preserve"
   width="124.14806"
   height="126.99345"
   viewBox="0 0 124.14806 126.99345"
   sodipodi:docname="pencil.eps.svg"
   inkscape:version="1.1.1 (3bf5ae0d25, 2021-09-20)"
   xmlns:inkscape="http://www.inkscape.org/namespaces/inkscape"
   xmlns:sodipodi="http://sodipodi.sourceforge.net/DTD/sodipodi-0.dtd"
   xmlns="http://www.w3.org/2000/svg"
   xmlns:svg="http://www.w3.org/2000/svg"><defs
     id="defs6" /><sodipodi:namedview
     id="namedview4"
     pagecolor="#ffffff"
     bordercolor="#666666"
     borderopacity="1.0"
     inkscape:pageshadow="2"
     inkscape:pageopacity="0.0"
     inkscape:pagecheckerboard="0"
     showgrid="false"
     inkscape:zoom="2.8085938"
     inkscape:cx="14.954103"
     inkscape:cy="74.59249"
     inkscape:window-width="1848"
     inkscape:window-height="1016"
     inkscape:window-x="72"
     inkscape:window-y="27"
     inkscape:window-maximized="1"
     inkscape:current-layer="g12" /><g
     id="g8"
     inkscape:groupmode="layer"
     inkscape:label="ink_ext_XXXXXX"
     transform="matrix(1.3333333,0,0,-1.3333333,-11.02257,123.33216)"><g
       id="g10"
       transform="scale(0.1)"><g
         id="g12"
         transform="matrix(960,0,0,960,0,2.146e-5)"><g
           id="g921"
           transform="translate(0.07873994,-0.03105594)"><path
             style="fill:#c9c9c9;stroke-width:0.0025"
             d="m 0.01007068,0.01024642 c 0.0015965,0.0055667 0.0012374,0.0092599 -0.00127624,0.01312501 -0.0031118,0.0047849 -0.00185705,0.01266452 0.01136803,0.07138949 0.0081762,0.03630603 0.01595173,0.0673193 0.01727886,0.06891838 0.0026082,0.003143 0.04850485,0.2069726 0.05124241,0.2275707 l 0.0016613,0.0125 0.27170247,0.27210397 c 0.14943638,0.1496572 0.28044425,0.27924122 0.2911286,0.2879645 0.0290911,0.0237516 0.0582071,0.0329903 0.0955739,0.0303264 0.0245189,-0.001748 0.0461267,-0.008881 0.0668069,-0.0220542 C 0.83665451,0.95865177 0.94577383,0.84882613 0.95690411,0.8298286 0.97071021,0.806264 0.97559101,0.7890702 0.97693461,0.759267 0.97921657,0.70865153 0.9703826,0.6771889 0.94538752,0.64691042 0.93714218,0.6369222 0.80683813,0.50535885 0.65582298,0.35454743 L 0.38125,0.08034485 0.36875,0.07889562 C 0.361875,0.07809855 0.2791875,0.0605619 0.185,0.03992527 0.0908125,0.01928867 0.01242228,0.00242572 0.01079951,0.00245207 0.00869082,0.00248632 0.00848288,0.0047101 0.01007068,0.01024642 Z"
             id="path935" /><path
             style="fill:#b7b7b7;stroke-width:0.0025"
             d="m 0.01181557,0.025625 c -0.00379738,0.0028663 -0.00292195,0.0085867 0.0105758,0.0691061 0.0080937,0.0362896 0.01611659,0.06684678 0.01782857,0.06790483 0.004518,0.002792 0.01334993,-0.001223 0.03635151,-0.016528 C 0.10096045,0.12988003 0.11806334,0.1117784 0.13507468,0.08418838 0.15527981,0.05141845 0.1580223,0.05387938 0.0825,0.0370112 0.0474375,0.02917988 0.01812127,0.02271112 0.01735282,0.0226362 0.01658438,0.0225612 0.01409262,0.0239063 0.01181557,0.025625 Z m 0.33427516,0.07540635 c -0.0164834,0.007179 -0.0321868,0.0330194 -0.0387973,0.0638429 l -0.002489,0.0116043 -0.0242774,0.007269 c -0.0313655,0.009392 -0.0549474,0.0212605 -0.0678219,0.034135 -0.0117611,0.0117611 -0.0304343,0.0474206 -0.0425026,0.0811657 l -0.008153,0.0227985 -0.0132057,0.001363 c -0.0171704,0.001772 -0.030339,0.008679 -0.0432463,0.0226816 -0.01222316,0.0132605 -0.01406578,0.0190282 -0.01259132,0.0394124 l 0.0010938,0.0151217 0.28607509,0.28607695 c 0.23564592,0.23564747 0.2883615,0.2871717 0.29904557,0.29228731 0.041675,0.0199543 0.0927228,0.0170509 0.1332795,-0.00758 0.00854,-0.005186 0.0375201,-0.0323397 0.0764769,-0.0716551 0.0675014,-0.0681227 0.0733626,-0.0760146 0.082219,-0.1107046 0.004983,-0.0195188 0.004861,-0.0588977 -2.5505e-4,-0.0821805 C 0.9657528,0.68305842 0.95542055,0.6615261 0.94875,0.6604236 0.946,0.65996907 0.818875,0.53492025 0.66625,0.38253735 0.513625,0.23015443 0.38514963,0.10368257 0.38074915,0.10148875 c -0.009644,-0.0048077 -0.0242273,-0.0050002 -0.0346584,-4.574e-4 z"
             id="path933" /><path
             style="fill:#a7a7a7;stroke-width:0.0025"
             d="M 0.01091386,0.02872448 C 0.00959024,0.03217378 0.03309016,0.14424655 0.03778504,0.156875 0.03893524,0.159969 0.04135734,0.1625 0.04316764,0.1625 0.05009804,0.1625 0.08909561,0.135997 0.1037963,0.1212963 0.12070885,0.10438375 0.145,0.06723155 0.145,0.05827715 0.145,0.05443165 0.143182,0.05218055 0.139375,0.05131215 0.09601861,0.04142188 0.01913215,0.025 0.01618295,0.025 c -0.0021119,0 -0.004483,0.001676 -0.0052691,0.0037245 z M 0.34341458,0.1047965 c -0.0148431,0.009051 -0.0246264,0.0253848 -0.0322583,0.0538578 l -0.005335,0.0199043 -0.0222856,0.006421 C 0.25346118,0.1936446 0.23015728,0.2049479 0.21659528,0.217449 0.20348868,0.2295303 0.18821088,0.2578346 0.17254858,0.2990521 L 0.16198418,0.326854 0.14837428,0.328259 C 0.12375808,0.3308 0.09996129,0.3505893 0.09597573,0.3718342 l -0.0016403,0.008743 0.27595736,0.2759678 c 0.15177652,0.15178228 0.28180894,0.28074624 0.28896095,0.28658657 0.007152,0.00584 0.0130582,0.0116552 0.013125,0.0129219 6.675e-5,0.001267 -0.001832,0.004462 -0.00422,0.007101 -0.004134,0.004568 -0.004104,0.004979 6.25e-4,0.008589 0.0240998,0.0183948 0.0769804,0.0239993 0.11284558,0.0119597 0.0103182,-0.003464 0.0251416,-0.0103244 0.0329408,-0.0152461 C 0.83365258,0.95641406 0.9390172,0.850762 0.95183242,0.83081894 0.96783033,0.805923 0.97375488,0.78405043 0.97372358,0.75 0.97369458,0.71845968 0.97049413,0.70191085 0.9598233,0.678125 0.95495575,0.667275 0.95142737,0.6625 0.94827758,0.6625 c -0.002688,0 -0.1175633,-0.11309425 -0.2820318,-0.27766018 -0.15262268,-0.1527131 -0.28053365,-0.2792756 -0.28424663,-0.28125 -0.009683,-0.0051488 -0.0291609,-0.0045396 -0.0385846,0.001207 z"
             id="path931" /><path
             style="fill:#8a8a8a;stroke-width:0.0025"
             d="m 0.010765,0.033125 c 7.1887e-4,0.0030937 0.0072802,0.0324757 0.01458072,0.06529325 0.0077051,0.0346363 0.0145888,0.06017287 0.01640851,0.06087117 0.0041554,0.001595 0.03092325,-0.0137066 0.04879267,-0.0278912 0.02322829,-0.0184384 0.05971679,-0.0716 0.05229316,-0.07618804 C 0.13821006,0.05234867 0.02496755,0.0274842 0.01660398,0.02749272 0.01047404,0.02749773 0.00964381,0.0282998 0.010765,0.033125 Z M 0.34875,0.1035434 C 0.3327108,0.1107024 0.3171479,0.1354306 0.3116174,0.1625436 0.3099484,0.1707236 0.3074964,0.1783824 0.3061664,0.179563 0.3048374,0.180744 0.2958746,0.183772 0.2862496,0.186293 0.2494042,0.195943 0.2264424,0.2079281 0.2116193,0.2252456 0.2002327,0.2385483 0.1829266,0.2737012 0.172052,0.3056162 L 0.16375,0.32998262 0.44247655,0.60872205 0.7212031,0.88746151 0.69435155,0.91439658 C 0.6795832,0.92921087 0.6675,0.94258231 0.6675,0.94411089 c 0,0.001529 0.002531,0.004499 0.005625,0.006601 0.004802,0.003263 0.005165,0.004496 0.002484,0.00843 -0.008233,0.0120782 -0.007871,0.0126093 0.0143311,0.0210227 0.0240958,0.009131 0.0487418,0.011376 0.0728176,0.006633 0.0406488,-0.008008 0.0509538,-0.015157 0.11763915,-0.0816083 0.0617922,-0.0615753 0.0747778,-0.0778131 0.0846759,-0.10588243 0.006681,-0.0189454 0.009482,-0.0641587 0.005209,-0.0840817 C 0.96350218,0.68361273 0.9766607,0.6978193 0.6712258,0.39234943 0.47600202,0.1971033 0.38255373,0.10530245 0.37695458,0.1032661 0.3662014,0.09935533 0.35795105,0.09943642 0.34875,0.1035434 Z"
             id="path929" /><path
             style="fill:#6a6a6a;stroke-width:0.0025"
             d="m 0.01363085,0.03065903 c -6.6673e-4,0.0017374 0.0043329,0.0278937 0.01111032,0.058125 0.01620817,0.07229815 0.01517053,0.06871602 0.01990485,0.06871565 0.0074787,-6.3e-7 0.0438633,-0.0253794 0.05910327,-0.0412254 0.0181762,-0.018899 0.0408311,-0.0551939 0.0369031,-0.05912185 -0.001876,-0.0018756 -0.11762736,-0.0292814 -0.1251059,-0.02962053 -3.8691e-4,-1.75e-5 -0.001249,0.0013896 -0.0019156,0.0031271 z M 0.34591458,0.1072965 c -0.0151248,0.009223 -0.0276597,0.0312323 -0.0333225,0.05851 -0.001611,0.007758 -0.003887,0.0146985 -0.005058,0.0154222 -0.001171,7.2375e-4 -0.0120641,0.004186 -0.0242068,0.007693 -0.0330368,0.009543 -0.0560409,0.0214676 -0.0683654,0.0354388 -0.0115772,0.0131241 -0.0304674,0.0506346 -0.0415464,0.082499 L 0.16625,0.3274695 0.44384748,0.60560975 C 0.5965261,0.75858689 0.72402042,0.88747983 0.72716823,0.89203852 l 0.005723,0.008289 -0.025579,0.0259935 c -0.0298178,0.030301 -0.029829,0.0311099 -5.1783e-4,0.0376311 0.0231858,0.005158 0.0556183,0.00381 0.0760217,-0.003161 C 0.8091653,0.95178912 0.824872,0.93994872 0.8734087,0.89250082 0.92992,0.83725712 0.9500618,0.81431662 0.9602818,0.79355682 0.9746139,0.76444432 0.9744166,0.72812622 0.9597417,0.69410602 0.95212,0.67643547 0.94910152,0.6733075 0.669145,0.39296485 0.51355275,0.23715803 0.38321212,0.10806428 0.37949915,0.10608985 c -0.009398,-0.004998 -0.0242869,-0.004463 -0.0335846,0.001207 z"
             id="path927" /><path
             style="fill:#484848;stroke-width:0.0025"
             d="M 0.01499272,0.031875 C 0.01497407,0.0366765 0.04100819,0.1500862 0.0427914,0.1529715 0.04740679,0.16043935 0.09184,0.12848697 0.11231169,0.10297877 0.12563721,0.08637485 0.14128048,0.06044715 0.13921748,0.05838415 0.13820231,0.05736897 0.01916122,0.03 0.01576091,0.03 c -4.185e-4,0 -7.6419e-4,8.4375e-4 -7.6819e-4,0.001875 z m 0.32567653,0.08156777 c -0.0115174,0.0104053 -0.0217984,0.0315412 -0.0263989,0.0542712 l -0.003186,0.0157414 -0.0261671,0.007811 c -0.0340912,0.0101765 -0.0534552,0.01964 -0.066138,0.0323228 -0.0116051,0.0116051 -0.0291639,0.0457464 -0.0411621,0.0800355 l -0.007829,0.0223748 0.21953981,0.2201252 C 0.51007452,0.66719365 0.63739512,0.79521875 0.6722623,0.830625 0.70712947,0.86603125 0.73692052,0.895 0.7384646,0.895 0.7400086,0.895 0.7886994,0.8474687 0.8466662,0.789375 0.93686102,0.69898262 0.9517604,0.68302892 0.94998045,0.67875 0.9488365,0.676 0.8201983,0.54613975 0.6641178,0.39017165 L 0.38033502,0.10659328 0.36548213,0.10551893 c -0.0141898,-0.001026 -0.0152976,-6.7266e-4 -0.0248129,0.007924 z"
             id="path925" /><path
             style="fill:#343434;stroke-width:0.0025"
             d="m 0.34308613,0.11364045 c -0.0102708,0.008642 -0.0223766,0.0334125 -0.026091,0.0533859 l -0.002934,0.0157763 0.2767194,0.27672785 C 0.74297628,0.61173087 0.8675,0.73793663 0.8675,0.73998775 c 0,0.002051 -0.0309879,0.0347321 -0.0688621,0.0726243 -0.0520055,0.0520304 -0.0684632,0.0699345 -0.0672325,0.0731415 8.9623e-4,0.002336 0.002726,0.004246 0.004066,0.004246 0.004066,0 0.21201345,-0.20596953 0.2120212,-0.21000413 5e-6,-0.002065 -0.12760493,-0.13136254 -0.28357528,-0.28732837 l -0.2835825,-0.28357423 -0.0146621,-0.001061 c -0.0130603,-9.447e-4 -0.0155278,-3.3208e-4 -0.0225866,0.005609 z"
             id="path923" /></g></g></g></g></svg>
